<?xml version="1.0" encoding="utf-8"?>
<!-- Generator: Adobe Illustrator 16.0.4, SVG Export Plug-In . SVG Version: 6.00 Build 0)  -->
<!DOCTYPE svg PUBLIC "-//W3C//DTD SVG 1.1//EN" "http://www.w3.org/Graphics/SVG/1.1/DTD/svg11.dtd">
<svg version="1.1" id="Layer_1" xmlns="http://www.w3.org/2000/svg" xmlns:xlink="http://www.w3.org/1999/xlink" x="0px" y="0px"
	 width="148px" height="107px" viewBox="0 0 148 107" enable-background="new 0 0 148 107" xml:space="preserve">
<polygon fill="#393737" points="50.765,27.065 40.889,43.764 39.15,43.764 29.271,27.065 29.271,59.595 27.223,59.595 
	27.223,23.848 29.732,23.848 40.019,41.262 50.306,23.848 52.813,23.848 52.813,59.595 50.765,59.595 "/>
<polygon fill="#393737" points="70.215,6.342 72.262,6.342 72.262,57.552 87.616,57.552 87.616,59.595 70.215,59.595 "/>
<g>
	<defs>
		<rect id="SVGID_1_" width="151.327" height="107"/>
	</defs>
	<clipPath id="SVGID_2_">
		<use xlink:href="#SVGID_1_"  overflow="visible"/>
	</clipPath>
	<path clip-path="url(#SVGID_2_)" fill="#393737" d="M115.662,39.576c2.865,0.817,4.879,2.079,6.04,3.78
		c1.158,1.702,1.738,3.541,1.738,5.516c0,1.599-0.273,3.038-0.818,4.314c-0.546,1.277-1.298,2.393-2.251,3.345
		c-0.956,0.953-2.072,1.704-3.354,2.248c-1.278,0.545-2.635,0.816-4.069,0.816h-10.491V23.847h10.491
		c1.16,0,2.253,0.222,3.275,0.664c1.025,0.442,1.921,1.047,2.689,1.814c0.766,0.764,1.372,1.657,1.815,2.68
		c0.444,1.02,0.664,2.197,0.664,3.524c0,1.396-0.383,2.733-1.151,4.009C119.476,37.814,117.946,38.829,115.662,39.576
		 M121.393,48.872c0-0.987-0.22-1.991-0.664-3.014c-0.443-1.02-1.05-1.916-1.815-2.681c-0.769-0.766-1.664-1.372-2.689-1.813
		c-1.022-0.441-2.115-0.664-3.275-0.664h-6.396v-2.042h6.396c0.887,0,1.716-0.171,2.483-0.512c0.769-0.341,1.44-0.799,2.021-1.378
		s1.042-1.253,1.384-2.017c0.339-0.767,0.51-1.507,0.51-2.222c0-1.055-0.171-1.965-0.51-2.732c-0.342-0.766-0.804-1.438-1.384-2.018
		c-0.58-0.578-1.252-1.036-2.021-1.377c-0.768-0.341-1.597-0.512-2.483-0.512h-8.445v31.662h8.445c1.16,0,2.253-0.219,3.275-0.664
		c1.025-0.44,1.921-1.046,2.689-1.812c0.766-0.767,1.372-1.66,1.815-2.68C121.173,51.374,121.393,50.199,121.393,48.872"/>
	<polyline clip-path="url(#SVGID_2_)" fill="#393737" points="138.773,77.452 138.773,6.589 140.82,6.589 140.82,77.452 	"/>
	<polyline clip-path="url(#SVGID_2_)" fill="#393737" points="10.507,77.452 10.507,6.341 12.554,6.341 12.554,77.452 	"/>
	<polyline clip-path="url(#SVGID_2_)" fill="#393737" points="140.82,77.452 10.507,77.452 10.507,75.404 140.82,75.404 	"/>
	<polyline clip-path="url(#SVGID_2_)" fill="#393737" points="11.53,6.342 52.813,6.342 52.813,8.389 11.53,8.389 	"/>
	<polyline clip-path="url(#SVGID_2_)" fill="#393737" points="70.215,6.342 140.82,6.342 140.82,8.389 70.215,8.389 	"/>
	<path clip-path="url(#SVGID_2_)" fill="#393737" d="M13.673,93.976c0.157,0.363,0.372,0.681,0.645,0.953
		c0.272,0.271,0.59,0.487,0.953,0.646c0.363,0.155,0.75,0.235,1.162,0.235c0.411,0,0.799-0.08,1.162-0.235
		c0.364-0.158,0.639-0.334,0.826-0.526c0.188-0.194,0.33-0.353,0.426-0.473l0.617,0.381c-0.121,0.17-0.303,0.38-0.544,0.627
		c-0.243,0.247-0.59,0.469-1.044,0.663c-0.454,0.194-0.936,0.288-1.443,0.288c-0.509,0-0.989-0.094-1.444-0.288
		c-0.453-0.194-0.85-0.46-1.188-0.8c-0.339-0.339-0.605-0.736-0.799-1.189s-0.291-0.964-0.291-1.533V87.46
		c0-0.57,0.097-1.082,0.291-1.536c0.193-0.453,0.46-0.85,0.799-1.189c0.339-0.338,0.735-0.604,1.188-0.798
		c0.455-0.193,0.935-0.291,1.444-0.291c0.508,0,0.989,0.098,1.443,0.291c0.454,0.194,0.801,0.415,1.044,0.663
		c0.241,0.248,0.423,0.457,0.544,0.626l-0.617,0.382c-0.096-0.123-0.238-0.278-0.426-0.473c-0.188-0.194-0.462-0.37-0.826-0.526
		c-0.362-0.158-0.751-0.236-1.162-0.236c-0.412,0-0.799,0.078-1.162,0.236c-0.363,0.156-0.681,0.372-0.953,0.643
		c-0.273,0.274-0.488,0.592-0.645,0.954c-0.157,0.363-0.236,0.781-0.236,1.255v5.264C13.437,93.196,13.516,93.613,13.673,93.976"/>
	<path clip-path="url(#SVGID_2_)" fill="none" stroke="#393737" stroke-miterlimit="10" d="M13.673,93.976
		c0.157,0.363,0.372,0.681,0.645,0.953c0.272,0.271,0.59,0.487,0.953,0.646c0.363,0.155,0.75,0.235,1.162,0.235
		c0.411,0,0.799-0.08,1.162-0.235c0.364-0.158,0.639-0.334,0.826-0.526c0.188-0.194,0.33-0.353,0.426-0.473l0.617,0.381
		c-0.121,0.17-0.303,0.38-0.544,0.627c-0.243,0.247-0.59,0.469-1.044,0.663c-0.454,0.194-0.936,0.288-1.443,0.288
		c-0.509,0-0.989-0.094-1.444-0.288c-0.453-0.194-0.85-0.46-1.188-0.8c-0.339-0.339-0.605-0.736-0.799-1.189
		s-0.291-0.964-0.291-1.533V87.46c0-0.57,0.097-1.082,0.291-1.536c0.193-0.453,0.46-0.85,0.799-1.189
		c0.339-0.338,0.735-0.604,1.188-0.798c0.455-0.193,0.935-0.291,1.444-0.291c0.508,0,0.989,0.098,1.443,0.291
		c0.454,0.194,0.801,0.415,1.044,0.663c0.241,0.248,0.423,0.457,0.544,0.626l-0.617,0.382c-0.096-0.123-0.238-0.278-0.426-0.473
		c-0.188-0.194-0.462-0.37-0.826-0.526c-0.362-0.158-0.751-0.236-1.162-0.236c-0.412,0-0.799,0.078-1.162,0.236
		c-0.363,0.156-0.681,0.372-0.953,0.643c-0.273,0.274-0.488,0.592-0.645,0.954c-0.157,0.363-0.236,0.781-0.236,1.255v5.264
		C13.437,93.196,13.516,93.613,13.673,93.976z"/>
	<path clip-path="url(#SVGID_2_)" fill="#393737" d="M24.946,92.288c-0.169-0.12-0.363-0.214-0.581-0.28s-0.448-0.101-0.689-0.101
		c-0.581,0-1.059,0.167-1.435,0.5c-0.375,0.332-0.562,0.771-0.562,1.315c0,0.654,0.187,1.164,0.562,1.534
		c0.375,0.368,0.854,0.554,1.435,0.554c0.617,0,1.104-0.186,1.461-0.554c0.357-0.37,0.535-0.88,0.535-1.534V90.09
		c0-0.664-0.178-1.18-0.535-1.542c-0.357-0.363-0.845-0.544-1.461-0.544c-0.69,0-1.247,0.266-1.67,0.797l-0.581-0.345
		c0.218-0.362,0.536-0.65,0.954-0.862c0.417-0.212,0.85-0.316,1.298-0.316c0.387,0,0.747,0.066,1.08,0.199
		c0.332,0.134,0.62,0.324,0.862,0.571c0.242,0.249,0.433,0.545,0.573,0.89c0.139,0.345,0.209,0.729,0.209,1.152v3.632
		c0,0.302,0.001,0.575,0.009,0.816c0.005,0.242,0.029,0.452,0.071,0.626c0.042,0.177,0.115,0.313,0.218,0.41
		c0.103,0.098,0.246,0.146,0.427,0.146v0.726c-0.388,0-0.678-0.088-0.871-0.264c-0.194-0.175-0.333-0.408-0.418-0.699
		c-0.242,0.313-0.551,0.569-0.925,0.764c-0.376,0.194-0.788,0.288-1.235,0.288c-0.376,0-0.727-0.068-1.053-0.208
		c-0.327-0.138-0.615-0.332-0.863-0.58c-0.248-0.248-0.444-0.546-0.59-0.891c-0.145-0.345-0.217-0.722-0.217-1.134
		c0-0.352,0.073-0.68,0.217-0.988c0.146-0.311,0.342-0.579,0.59-0.81c0.248-0.229,0.536-0.411,0.863-0.544
		c0.326-0.133,0.677-0.199,1.053-0.199c0.459,0,0.883,0.103,1.271,0.309V92.288z"/>
	<path clip-path="url(#SVGID_2_)" fill="none" stroke="#393737" stroke-miterlimit="10" d="M24.946,92.288
		c-0.169-0.12-0.363-0.214-0.581-0.28s-0.448-0.101-0.689-0.101c-0.581,0-1.059,0.167-1.435,0.5
		c-0.375,0.332-0.562,0.771-0.562,1.315c0,0.654,0.187,1.164,0.562,1.534c0.375,0.368,0.854,0.554,1.435,0.554
		c0.617,0,1.104-0.186,1.461-0.554c0.357-0.37,0.535-0.88,0.535-1.534V90.09c0-0.664-0.178-1.18-0.535-1.542
		c-0.357-0.363-0.845-0.544-1.461-0.544c-0.69,0-1.247,0.266-1.67,0.797l-0.581-0.345c0.218-0.362,0.536-0.65,0.954-0.862
		c0.417-0.212,0.85-0.316,1.298-0.316c0.387,0,0.747,0.066,1.08,0.199c0.332,0.134,0.62,0.324,0.862,0.571
		c0.242,0.249,0.433,0.545,0.573,0.89c0.139,0.345,0.209,0.729,0.209,1.152v3.632c0,0.302,0.001,0.575,0.009,0.816
		c0.005,0.242,0.029,0.452,0.071,0.626c0.042,0.177,0.115,0.313,0.218,0.41c0.103,0.098,0.246,0.146,0.427,0.146v0.726
		c-0.388,0-0.678-0.088-0.871-0.264c-0.194-0.175-0.333-0.408-0.418-0.699c-0.242,0.313-0.551,0.569-0.925,0.764
		c-0.376,0.194-0.788,0.288-1.235,0.288c-0.376,0-0.727-0.068-1.053-0.208c-0.327-0.138-0.615-0.332-0.863-0.58
		c-0.248-0.248-0.444-0.546-0.59-0.891c-0.145-0.345-0.217-0.722-0.217-1.134c0-0.352,0.073-0.68,0.217-0.988
		c0.146-0.311,0.342-0.579,0.59-0.81c0.248-0.229,0.536-0.411,0.863-0.544c0.326-0.133,0.677-0.199,1.053-0.199
		c0.459,0,0.883,0.103,1.271,0.309V92.288z"/>
	<path clip-path="url(#SVGID_2_)" fill="#393737" d="M28.577,87.369h0.727v0.927c0.46-0.485,0.98-0.8,1.561-0.945
		c0.581-0.146,1.149-0.072,1.706,0.218v0.853c-0.326-0.253-0.681-0.404-1.062-0.452c-0.381-0.049-0.736,0-1.062,0.144
		c-0.328,0.145-0.6,0.383-0.817,0.709c-0.218,0.327-0.327,0.731-0.327,1.217v6.408h-0.727V87.369z"/>
	<path clip-path="url(#SVGID_2_)" fill="none" stroke="#393737" stroke-miterlimit="10" d="M28.577,87.369h0.727v0.927
		c0.46-0.485,0.98-0.8,1.561-0.945c0.581-0.146,1.149-0.072,1.706,0.218v0.853c-0.326-0.253-0.681-0.404-1.062-0.452
		c-0.381-0.049-0.736,0-1.062,0.144c-0.328,0.145-0.6,0.383-0.817,0.709c-0.218,0.327-0.327,0.731-0.327,1.217v6.408h-0.727V87.369z
		"/>
	<path clip-path="url(#SVGID_2_)" fill="#393737" d="M35.476,95.337c0.169,0.122,0.363,0.216,0.581,0.282
		c0.217,0.066,0.447,0.101,0.689,0.101c0.581,0,1.059-0.182,1.434-0.546c0.375-0.363,0.562-0.877,0.562-1.544v-3.54
		c0-0.653-0.178-1.163-0.535-1.533c-0.357-0.368-0.844-0.553-1.461-0.553c-0.581,0-1.06,0.185-1.434,0.553
		c-0.375,0.37-0.563,0.88-0.563,1.533v11.075h-0.725V87.369h0.725v0.963c0.242-0.267,0.54-0.51,0.89-0.729
		c0.351-0.218,0.72-0.325,1.108-0.325c0.387,0,0.748,0.068,1.08,0.208c0.333,0.139,0.621,0.333,0.863,0.581
		c0.241,0.247,0.432,0.544,0.572,0.891c0.138,0.344,0.208,0.722,0.208,1.133v3.54c0,0.425-0.073,0.812-0.218,1.162
		c-0.145,0.353-0.342,0.649-0.59,0.89c-0.248,0.242-0.535,0.43-0.862,0.564c-0.327,0.133-0.678,0.199-1.053,0.199
		c-0.459,0-0.884-0.103-1.271-0.309V95.337z"/>
	<path clip-path="url(#SVGID_2_)" fill="none" stroke="#393737" stroke-miterlimit="10" d="M35.476,95.337
		c0.169,0.122,0.363,0.216,0.581,0.282c0.217,0.066,0.447,0.101,0.689,0.101c0.581,0,1.059-0.182,1.434-0.546
		c0.375-0.363,0.562-0.877,0.562-1.544v-3.54c0-0.653-0.178-1.163-0.535-1.533c-0.357-0.368-0.844-0.553-1.461-0.553
		c-0.581,0-1.06,0.185-1.434,0.553c-0.375,0.37-0.563,0.88-0.563,1.533v11.075h-0.725V87.369h0.725v0.963
		c0.242-0.267,0.54-0.51,0.89-0.729c0.351-0.218,0.72-0.325,1.108-0.325c0.387,0,0.748,0.068,1.08,0.208
		c0.333,0.139,0.621,0.333,0.863,0.581c0.241,0.247,0.432,0.544,0.572,0.891c0.138,0.344,0.208,0.722,0.208,1.133v3.54
		c0,0.425-0.073,0.812-0.218,1.162c-0.145,0.353-0.342,0.649-0.59,0.89c-0.248,0.242-0.535,0.43-0.862,0.564
		c-0.327,0.133-0.678,0.199-1.053,0.199c-0.459,0-0.884-0.103-1.271-0.309V95.337z"/>
	<path clip-path="url(#SVGID_2_)" fill="#393737" d="M42.555,91.907h1.271c0.581,0,1.059-0.182,1.435-0.545
		c0.375-0.361,0.562-0.816,0.562-1.36c0-0.654-0.188-1.15-0.562-1.489c-0.375-0.34-0.854-0.508-1.435-0.508
		c-0.618,0-1.104,0.168-1.461,0.508c-0.358,0.339-0.535,0.835-0.535,1.489v3.721c0,0.665,0.177,1.181,0.535,1.543
		c0.357,0.363,0.844,0.545,1.461,0.545c0.678,0,1.228-0.266,1.652-0.8l0.581,0.381c-0.242,0.353-0.562,0.631-0.963,0.837
		c-0.398,0.204-0.823,0.307-1.27,0.307c-0.388,0-0.748-0.066-1.08-0.199c-0.333-0.132-0.621-0.319-0.862-0.562
		c-0.243-0.243-0.433-0.538-0.572-0.889c-0.139-0.353-0.209-0.738-0.209-1.163V90.09c0-0.411,0.07-0.789,0.209-1.133
		c0.139-0.347,0.33-0.644,0.572-0.891c0.241-0.248,0.529-0.442,0.862-0.581c0.332-0.14,0.692-0.208,1.08-0.208
		c0.375,0,0.726,0.068,1.053,0.208c0.327,0.139,0.614,0.333,0.862,0.581c0.248,0.247,0.445,0.544,0.59,0.891
		c0.145,0.344,0.218,0.722,0.218,1.133c0,0.353-0.073,0.682-0.218,0.99s-0.342,0.578-0.59,0.808
		c-0.248,0.23-0.535,0.412-0.862,0.545c-0.327,0.133-0.678,0.2-1.053,0.2h-1.271V91.907z"/>
	<path clip-path="url(#SVGID_2_)" fill="none" stroke="#393737" stroke-miterlimit="10" d="M42.555,91.907h1.271
		c0.581,0,1.059-0.182,1.435-0.545c0.375-0.361,0.562-0.816,0.562-1.36c0-0.654-0.188-1.15-0.562-1.489
		c-0.375-0.34-0.854-0.508-1.435-0.508c-0.618,0-1.104,0.168-1.461,0.508c-0.358,0.339-0.535,0.835-0.535,1.489v3.721
		c0,0.665,0.177,1.181,0.535,1.543c0.357,0.363,0.844,0.545,1.461,0.545c0.678,0,1.228-0.266,1.652-0.8l0.581,0.381
		c-0.242,0.353-0.562,0.631-0.963,0.837c-0.398,0.204-0.823,0.307-1.27,0.307c-0.388,0-0.748-0.066-1.08-0.199
		c-0.333-0.132-0.621-0.319-0.862-0.562c-0.243-0.243-0.433-0.538-0.572-0.889c-0.139-0.353-0.209-0.738-0.209-1.163V90.09
		c0-0.411,0.07-0.789,0.209-1.133c0.139-0.347,0.33-0.644,0.572-0.891c0.241-0.248,0.529-0.442,0.862-0.581
		c0.332-0.14,0.692-0.208,1.08-0.208c0.375,0,0.726,0.068,1.053,0.208c0.327,0.139,0.614,0.333,0.862,0.581
		c0.248,0.247,0.445,0.544,0.59,0.891c0.145,0.344,0.218,0.722,0.218,1.133c0,0.353-0.073,0.682-0.218,0.99s-0.342,0.578-0.59,0.808
		c-0.248,0.23-0.535,0.412-0.862,0.545c-0.327,0.133-0.678,0.2-1.053,0.2h-1.271V91.907z"/>
	<path clip-path="url(#SVGID_2_)" fill="#393737" d="M48.401,87.369h0.726v0.963c0.243-0.267,0.539-0.51,0.89-0.729
		c0.35-0.218,0.719-0.325,1.108-0.325c0.387,0,0.747,0.068,1.08,0.208c0.333,0.139,0.62,0.333,0.862,0.581
		c0.242,0.247,0.433,0.544,0.572,0.891c0.139,0.344,0.208,0.722,0.208,1.133v6.355h-0.726V90.09c0-0.653-0.178-1.163-0.536-1.533
		c-0.357-0.368-0.844-0.553-1.46-0.553c-0.582,0-1.06,0.185-1.435,0.553c-0.375,0.37-0.563,0.88-0.563,1.533v6.355h-0.726V87.369z"
		/>
	<path clip-path="url(#SVGID_2_)" fill="none" stroke="#393737" stroke-miterlimit="10" d="M48.401,87.369h0.726v0.963
		c0.243-0.267,0.539-0.51,0.89-0.729c0.35-0.218,0.719-0.325,1.108-0.325c0.387,0,0.747,0.068,1.08,0.208
		c0.333,0.139,0.62,0.333,0.862,0.581c0.242,0.247,0.433,0.544,0.572,0.891c0.139,0.344,0.208,0.722,0.208,1.133v6.355h-0.726V90.09
		c0-0.653-0.178-1.163-0.536-1.533c-0.357-0.368-0.844-0.553-1.46-0.553c-0.582,0-1.06,0.185-1.435,0.553
		c-0.375,0.37-0.563,0.88-0.563,1.533v6.355h-0.726V87.369z"/>
	<path clip-path="url(#SVGID_2_)" fill="#393737" d="M57.052,94.71c0.139,0.273,0.33,0.501,0.572,0.681
		c0.242,0.184,0.514,0.309,0.817,0.383c0.242,0.062,0.496,0.066,0.763,0.018v0.726c-0.34,0.038-0.679,0.013-1.018-0.071
		c-0.387-0.11-0.734-0.284-1.043-0.526c-0.308-0.242-0.557-0.546-0.744-0.909c-0.188-0.362-0.281-0.792-0.281-1.288v-5.628H55.39
		v-0.726h0.727v-3.631h0.726v3.631h1.634v0.726h-1.634v5.628C56.843,94.111,56.912,94.44,57.052,94.71"/>
	<path clip-path="url(#SVGID_2_)" fill="none" stroke="#393737" stroke-miterlimit="10" d="M57.052,94.71
		c0.139,0.273,0.33,0.501,0.572,0.681c0.242,0.184,0.514,0.309,0.817,0.383c0.242,0.062,0.496,0.066,0.763,0.018v0.726
		c-0.34,0.038-0.679,0.013-1.018-0.071c-0.387-0.11-0.734-0.284-1.043-0.526c-0.308-0.242-0.557-0.546-0.744-0.909
		c-0.188-0.362-0.281-0.792-0.281-1.288v-5.628H55.39v-0.726h0.727v-3.631h0.726v3.631h1.634v0.726h-1.634v5.628
		C56.843,94.111,56.912,94.44,57.052,94.71z"/>
	<path clip-path="url(#SVGID_2_)" fill="#393737" d="M60.656,87.369h0.726v0.927c0.46-0.485,0.98-0.8,1.562-0.945
		c0.581-0.146,1.149-0.072,1.706,0.218v0.853c-0.327-0.253-0.681-0.404-1.062-0.452c-0.381-0.049-0.736,0-1.062,0.144
		c-0.327,0.145-0.599,0.383-0.817,0.709c-0.218,0.327-0.327,0.731-0.327,1.217v6.408h-0.726V87.369z"/>
	<path clip-path="url(#SVGID_2_)" fill="none" stroke="#393737" stroke-miterlimit="10" d="M60.656,87.369h0.726v0.927
		c0.46-0.485,0.98-0.8,1.562-0.945c0.581-0.146,1.149-0.072,1.706,0.218v0.853c-0.327-0.253-0.681-0.404-1.062-0.452
		c-0.381-0.049-0.736,0-1.062,0.144c-0.327,0.145-0.599,0.383-0.817,0.709c-0.218,0.327-0.327,0.731-0.327,1.217v6.408h-0.726
		V87.369z"/>
	<path clip-path="url(#SVGID_2_)" fill="#393737" d="M67.753,97.044l-2.378-9.676h0.762l1.998,8.15l2.015-8.15h0.762l-2.941,11.818
		c-0.073,0.313-0.197,0.596-0.372,0.844c-0.176,0.248-0.379,0.463-0.609,0.646c-0.229,0.181-0.484,0.322-0.762,0.425
		c-0.279,0.104-0.562,0.161-0.854,0.172v-0.725c0.437-0.025,0.833-0.173,1.189-0.446c0.357-0.271,0.591-0.624,0.7-1.061
		L67.753,97.044z"/>
	<path clip-path="url(#SVGID_2_)" fill="none" stroke="#393737" stroke-miterlimit="10" d="M67.753,97.044l-2.378-9.676h0.762
		l1.998,8.15l2.015-8.15h0.762l-2.941,11.818c-0.073,0.313-0.197,0.596-0.372,0.844c-0.176,0.248-0.379,0.463-0.609,0.646
		c-0.229,0.181-0.484,0.322-0.762,0.425c-0.279,0.104-0.562,0.161-0.854,0.172v-0.725c0.437-0.025,0.833-0.173,1.189-0.446
		c0.357-0.271,0.591-0.624,0.7-1.061L67.753,97.044z"/>
	<path clip-path="url(#SVGID_2_)" fill="#393737" d="M79.662,92.288c-0.17-0.12-0.362-0.214-0.579-0.28
		c-0.219-0.066-0.449-0.101-0.691-0.101c-0.582,0-1.059,0.167-1.435,0.5c-0.375,0.332-0.562,0.771-0.562,1.315
		c0,0.654,0.188,1.164,0.562,1.534c0.376,0.368,0.853,0.554,1.435,0.554c0.617,0,1.104-0.186,1.462-0.554
		c0.356-0.37,0.535-0.88,0.535-1.534V90.09c0-0.664-0.179-1.18-0.535-1.542c-0.357-0.363-0.845-0.544-1.462-0.544
		c-0.69,0-1.247,0.266-1.67,0.797l-0.581-0.345c0.218-0.362,0.535-0.65,0.953-0.862c0.417-0.212,0.85-0.316,1.298-0.316
		c0.387,0,0.747,0.066,1.08,0.199c0.332,0.134,0.621,0.324,0.862,0.571c0.241,0.249,0.433,0.545,0.572,0.89
		c0.139,0.345,0.208,0.729,0.208,1.152v3.632c0,0.302,0.003,0.575,0.01,0.816c0.006,0.242,0.03,0.452,0.072,0.626
		c0.043,0.177,0.115,0.313,0.218,0.41c0.103,0.098,0.246,0.146,0.427,0.146v0.726c-0.387,0-0.678-0.088-0.871-0.264
		c-0.194-0.175-0.333-0.408-0.417-0.699c-0.243,0.313-0.551,0.569-0.926,0.764c-0.376,0.194-0.787,0.288-1.235,0.288
		c-0.375,0-0.726-0.068-1.053-0.208c-0.327-0.138-0.614-0.332-0.863-0.58c-0.247-0.248-0.444-0.546-0.589-0.891
		c-0.146-0.345-0.218-0.722-0.218-1.134c0-0.352,0.072-0.68,0.218-0.988c0.145-0.311,0.342-0.579,0.589-0.81
		c0.249-0.229,0.536-0.411,0.863-0.544s0.678-0.199,1.053-0.199c0.46,0,0.883,0.103,1.271,0.309V92.288z"/>
	<path clip-path="url(#SVGID_2_)" fill="none" stroke="#393737" stroke-miterlimit="10" d="M79.662,92.288
		c-0.17-0.12-0.362-0.214-0.579-0.28c-0.219-0.066-0.449-0.101-0.691-0.101c-0.582,0-1.059,0.167-1.435,0.5
		c-0.375,0.332-0.562,0.771-0.562,1.315c0,0.654,0.188,1.164,0.562,1.534c0.376,0.368,0.853,0.554,1.435,0.554
		c0.617,0,1.104-0.186,1.462-0.554c0.356-0.37,0.535-0.88,0.535-1.534V90.09c0-0.664-0.179-1.18-0.535-1.542
		c-0.357-0.363-0.845-0.544-1.462-0.544c-0.69,0-1.247,0.266-1.67,0.797l-0.581-0.345c0.218-0.362,0.535-0.65,0.953-0.862
		c0.417-0.212,0.85-0.316,1.298-0.316c0.387,0,0.747,0.066,1.08,0.199c0.332,0.134,0.621,0.324,0.862,0.571
		c0.241,0.249,0.433,0.545,0.572,0.89c0.139,0.345,0.208,0.729,0.208,1.152v3.632c0,0.302,0.003,0.575,0.01,0.816
		c0.006,0.242,0.03,0.452,0.072,0.626c0.043,0.177,0.115,0.313,0.218,0.41c0.103,0.098,0.246,0.146,0.427,0.146v0.726
		c-0.387,0-0.678-0.088-0.871-0.264c-0.194-0.175-0.333-0.408-0.417-0.699c-0.243,0.313-0.551,0.569-0.926,0.764
		c-0.376,0.194-0.787,0.288-1.235,0.288c-0.375,0-0.726-0.068-1.053-0.208c-0.327-0.138-0.614-0.332-0.863-0.58
		c-0.247-0.248-0.444-0.546-0.589-0.891c-0.146-0.345-0.218-0.722-0.218-1.134c0-0.352,0.072-0.68,0.218-0.988
		c0.145-0.311,0.342-0.579,0.589-0.81c0.249-0.229,0.536-0.411,0.863-0.544s0.678-0.199,1.053-0.199c0.46,0,0.883,0.103,1.271,0.309
		V92.288z"/>
	<path clip-path="url(#SVGID_2_)" fill="#393737" d="M83.293,87.369h0.727v0.963c0.243-0.267,0.538-0.51,0.889-0.729
		c0.352-0.218,0.721-0.325,1.107-0.325c0.389,0,0.749,0.068,1.081,0.208c0.333,0.139,0.62,0.333,0.861,0.581
		c0.243,0.247,0.433,0.544,0.574,0.891c0.138,0.344,0.208,0.722,0.208,1.133v6.355h-0.728V90.09c0-0.653-0.178-1.163-0.535-1.533
		c-0.357-0.368-0.844-0.553-1.462-0.553c-0.58,0-1.058,0.185-1.434,0.553c-0.375,0.37-0.562,0.88-0.562,1.533v6.355h-0.727V87.369z"
		/>
	<path clip-path="url(#SVGID_2_)" fill="none" stroke="#393737" stroke-miterlimit="10" d="M83.293,87.369h0.727v0.963
		c0.243-0.267,0.538-0.51,0.889-0.729c0.352-0.218,0.721-0.325,1.107-0.325c0.389,0,0.749,0.068,1.081,0.208
		c0.333,0.139,0.62,0.333,0.861,0.581c0.243,0.247,0.433,0.544,0.574,0.891c0.138,0.344,0.208,0.722,0.208,1.133v6.355h-0.728V90.09
		c0-0.653-0.178-1.163-0.535-1.533c-0.357-0.368-0.844-0.553-1.462-0.553c-0.58,0-1.058,0.185-1.434,0.553
		c-0.375,0.37-0.562,0.88-0.562,1.533v6.355h-0.727V87.369z"/>
	<path clip-path="url(#SVGID_2_)" fill="#393737" d="M94.549,88.476c-0.169-0.122-0.363-0.215-0.58-0.281
		c-0.219-0.066-0.448-0.101-0.69-0.101c-0.582,0-1.06,0.181-1.435,0.546c-0.375,0.362-0.562,0.876-0.562,1.542v3.54
		c0,0.654,0.179,1.164,0.535,1.534c0.356,0.368,0.844,0.554,1.462,0.554c0.544,0,1.007-0.177,1.388-0.526
		c0.382-0.351,0.585-0.841,0.609-1.471V83.738H96v9.893c0,0.315,0.005,0.601,0.011,0.854c0.005,0.256,0.029,0.473,0.072,0.654
		c0.042,0.182,0.111,0.323,0.208,0.427c0.098,0.103,0.242,0.155,0.436,0.155v0.726c-0.386,0-0.677-0.088-0.871-0.264
		c-0.193-0.175-0.333-0.413-0.417-0.718c-0.254,0.327-0.569,0.588-0.944,0.782s-0.781,0.288-1.216,0.288
		c-0.388,0-0.748-0.068-1.081-0.208c-0.332-0.138-0.619-0.332-0.861-0.58c-0.243-0.248-0.434-0.546-0.572-0.891
		c-0.14-0.345-0.209-0.722-0.209-1.134v-3.54c0-0.424,0.072-0.808,0.218-1.152c0.146-0.346,0.342-0.642,0.591-0.89
		c0.248-0.248,0.535-0.438,0.861-0.572c0.327-0.133,0.678-0.199,1.054-0.199c0.46,0,0.883,0.104,1.271,0.309V88.476z"/>
	<path clip-path="url(#SVGID_2_)" fill="none" stroke="#393737" stroke-miterlimit="10" d="M94.549,88.476
		c-0.169-0.122-0.363-0.215-0.58-0.281c-0.219-0.066-0.448-0.101-0.69-0.101c-0.582,0-1.06,0.181-1.435,0.546
		c-0.375,0.362-0.562,0.876-0.562,1.542v3.54c0,0.654,0.179,1.164,0.535,1.534c0.356,0.368,0.844,0.554,1.462,0.554
		c0.544,0,1.007-0.177,1.388-0.526c0.382-0.351,0.585-0.841,0.609-1.471V83.738H96v9.893c0,0.315,0.005,0.601,0.011,0.854
		c0.005,0.256,0.029,0.473,0.072,0.654c0.042,0.182,0.111,0.323,0.208,0.427c0.098,0.103,0.242,0.155,0.436,0.155v0.726
		c-0.386,0-0.677-0.088-0.871-0.264c-0.193-0.175-0.333-0.413-0.417-0.718c-0.254,0.327-0.569,0.588-0.944,0.782
		s-0.781,0.288-1.216,0.288c-0.388,0-0.748-0.068-1.081-0.208c-0.332-0.138-0.619-0.332-0.861-0.58
		c-0.243-0.248-0.434-0.546-0.572-0.891c-0.14-0.345-0.209-0.722-0.209-1.134v-3.54c0-0.424,0.072-0.808,0.218-1.152
		c0.146-0.346,0.342-0.642,0.591-0.89c0.248-0.248,0.535-0.438,0.861-0.572c0.327-0.133,0.678-0.199,1.054-0.199
		c0.46,0,0.883,0.104,1.271,0.309V88.476z"/>
	<path clip-path="url(#SVGID_2_)" fill="#393737" d="M102.355,83.738h0.726v11.617c0,0.546-0.097,1.052-0.29,1.517
		c-0.194,0.467-0.461,0.869-0.8,1.209c-0.338,0.337-0.734,0.604-1.189,0.797c-0.452,0.193-0.935,0.291-1.442,0.291v-0.726
		c0.411,0,0.798-0.076,1.162-0.228c0.363-0.151,0.681-0.363,0.952-0.635c0.273-0.272,0.488-0.6,0.646-0.98
		c0.156-0.381,0.236-0.795,0.236-1.245V83.738z"/>
	<path clip-path="url(#SVGID_2_)" fill="none" stroke="#393737" stroke-miterlimit="10" d="M102.355,83.738h0.726v11.617
		c0,0.546-0.097,1.052-0.29,1.517c-0.194,0.467-0.461,0.869-0.8,1.209c-0.338,0.337-0.734,0.604-1.189,0.797
		c-0.452,0.193-0.935,0.291-1.442,0.291v-0.726c0.411,0,0.798-0.076,1.162-0.228c0.363-0.151,0.681-0.363,0.952-0.635
		c0.273-0.272,0.488-0.6,0.646-0.98c0.156-0.381,0.236-0.795,0.236-1.245V83.738z"/>
	<path clip-path="url(#SVGID_2_)" fill="#393737" d="M107.892,96.535c-0.387,0-0.747-0.068-1.08-0.208
		c-0.333-0.138-0.619-0.332-0.861-0.58c-0.244-0.248-0.434-0.546-0.573-0.891c-0.139-0.345-0.208-0.722-0.208-1.134V90.09
		c0-0.423,0.069-0.808,0.208-1.152c0.14-0.345,0.329-0.641,0.573-0.89c0.242-0.247,0.528-0.438,0.861-0.571
		c0.333-0.133,0.693-0.199,1.08-0.199c0.376,0,0.728,0.066,1.054,0.199c0.327,0.134,0.614,0.324,0.862,0.571
		c0.248,0.249,0.443,0.545,0.59,0.89c0.145,0.345,0.217,0.729,0.217,1.152v3.632c0,0.412-0.072,0.789-0.217,1.134
		c-0.146,0.345-0.342,0.643-0.59,0.891s-0.535,0.442-0.862,0.58C108.619,96.466,108.268,96.535,107.892,96.535 M105.895,93.722
		c0,0.654,0.179,1.164,0.536,1.534c0.356,0.368,0.844,0.554,1.461,0.554c0.581,0,1.059-0.186,1.435-0.554
		c0.375-0.37,0.563-0.88,0.563-1.534V90.09c0-0.664-0.188-1.18-0.563-1.542c-0.376-0.363-0.854-0.544-1.435-0.544
		c-0.617,0-1.104,0.181-1.461,0.544c-0.357,0.362-0.536,0.878-0.536,1.542V93.722z"/>
	<path clip-path="url(#SVGID_2_)" fill="none" stroke="#393737" stroke-miterlimit="10" d="M107.892,96.535
		c-0.387,0-0.747-0.068-1.08-0.208c-0.333-0.138-0.619-0.332-0.861-0.58c-0.244-0.248-0.434-0.546-0.573-0.891
		c-0.139-0.345-0.208-0.722-0.208-1.134V90.09c0-0.423,0.069-0.808,0.208-1.152c0.14-0.345,0.329-0.641,0.573-0.89
		c0.242-0.247,0.528-0.438,0.861-0.571c0.333-0.133,0.693-0.199,1.08-0.199c0.376,0,0.728,0.066,1.054,0.199
		c0.327,0.134,0.614,0.324,0.862,0.571c0.248,0.249,0.443,0.545,0.59,0.89c0.145,0.345,0.217,0.729,0.217,1.152v3.632
		c0,0.412-0.072,0.789-0.217,1.134c-0.146,0.345-0.342,0.643-0.59,0.891s-0.535,0.442-0.862,0.58
		C108.619,96.466,108.268,96.535,107.892,96.535z M105.895,93.722c0,0.654,0.179,1.164,0.536,1.534
		c0.356,0.368,0.844,0.554,1.461,0.554c0.581,0,1.059-0.186,1.435-0.554c0.375-0.37,0.563-0.88,0.563-1.534V90.09
		c0-0.664-0.188-1.18-0.563-1.542c-0.376-0.363-0.854-0.544-1.435-0.544c-0.617,0-1.104,0.181-1.461,0.544
		c-0.357,0.362-0.536,0.878-0.536,1.542V93.722z"/>
	<path clip-path="url(#SVGID_2_)" fill="#393737" d="M112.521,85.281c0-0.133,0.043-0.242,0.127-0.327
		c0.085-0.084,0.194-0.127,0.327-0.127c0.134,0,0.242,0.043,0.327,0.127c0.084,0.085,0.128,0.194,0.128,0.327
		s-0.044,0.24-0.128,0.327c-0.085,0.085-0.193,0.126-0.327,0.126c-0.133,0-0.242-0.041-0.327-0.126
		C112.563,85.521,112.521,85.414,112.521,85.281 M112.611,87.369h0.728v9.077h-0.728V87.369z"/>
	<path clip-path="url(#SVGID_2_)" fill="none" stroke="#393737" stroke-miterlimit="10" d="M112.521,85.281
		c0-0.133,0.043-0.242,0.127-0.327c0.085-0.084,0.194-0.127,0.327-0.127c0.134,0,0.242,0.043,0.327,0.127
		c0.084,0.085,0.128,0.194,0.128,0.327s-0.044,0.24-0.128,0.327c-0.085,0.085-0.193,0.126-0.327,0.126
		c-0.133,0-0.242-0.041-0.327-0.126C112.563,85.521,112.521,85.414,112.521,85.281z M112.611,87.369h0.728v9.077h-0.728V87.369z"/>
	<path clip-path="url(#SVGID_2_)" fill="#393737" d="M115.608,87.369h0.726v0.963c0.242-0.267,0.538-0.51,0.89-0.729
		c0.351-0.218,0.72-0.325,1.106-0.325c0.388,0,0.748,0.068,1.081,0.208c0.332,0.139,0.619,0.333,0.862,0.581
		c0.241,0.247,0.433,0.544,0.572,0.891c0.138,0.344,0.208,0.722,0.208,1.133v6.355h-0.726V90.09c0-0.653-0.179-1.163-0.536-1.533
		c-0.357-0.368-0.845-0.553-1.462-0.553c-0.58,0-1.059,0.185-1.433,0.553c-0.377,0.37-0.563,0.88-0.563,1.533v6.355h-0.726V87.369z"
		/>
	<path clip-path="url(#SVGID_2_)" fill="none" stroke="#393737" stroke-miterlimit="10" d="M115.608,87.369h0.726v0.963
		c0.242-0.267,0.538-0.51,0.89-0.729c0.351-0.218,0.72-0.325,1.106-0.325c0.388,0,0.748,0.068,1.081,0.208
		c0.332,0.139,0.619,0.333,0.862,0.581c0.241,0.247,0.433,0.544,0.572,0.891c0.138,0.344,0.208,0.722,0.208,1.133v6.355h-0.726
		V90.09c0-0.653-0.179-1.163-0.536-1.533c-0.357-0.368-0.845-0.553-1.462-0.553c-0.58,0-1.059,0.185-1.433,0.553
		c-0.377,0.37-0.563,0.88-0.563,1.533v6.355h-0.726V87.369z"/>
	<path clip-path="url(#SVGID_2_)" fill="#393737" d="M124.321,91.907h1.271c0.579,0,1.059-0.182,1.434-0.545
		c0.375-0.361,0.562-0.816,0.562-1.36c0-0.654-0.188-1.15-0.562-1.489c-0.375-0.34-0.854-0.508-1.434-0.508
		c-0.618,0-1.104,0.168-1.463,0.508c-0.355,0.339-0.535,0.835-0.535,1.489v3.721c0,0.665,0.18,1.181,0.535,1.543
		c0.358,0.363,0.845,0.545,1.463,0.545c0.677,0,1.228-0.266,1.651-0.8l0.581,0.381c-0.241,0.353-0.563,0.631-0.962,0.837
		c-0.399,0.204-0.822,0.307-1.271,0.307c-0.389,0-0.748-0.066-1.08-0.199c-0.334-0.132-0.621-0.319-0.862-0.562
		c-0.242-0.243-0.434-0.538-0.572-0.889c-0.139-0.353-0.209-0.738-0.209-1.163V90.09c0-0.411,0.07-0.789,0.209-1.133
		c0.139-0.347,0.33-0.644,0.572-0.891c0.241-0.248,0.528-0.442,0.862-0.581c0.332-0.14,0.691-0.208,1.08-0.208
		c0.374,0,0.727,0.068,1.053,0.208c0.326,0.139,0.613,0.333,0.862,0.581c0.247,0.247,0.445,0.544,0.59,0.891
		c0.145,0.344,0.218,0.722,0.218,1.133c0,0.353-0.073,0.682-0.218,0.99s-0.343,0.578-0.59,0.808
		c-0.249,0.23-0.536,0.412-0.862,0.545s-0.679,0.2-1.053,0.2h-1.271V91.907z"/>
	<path clip-path="url(#SVGID_2_)" fill="none" stroke="#393737" stroke-miterlimit="10" d="M124.321,91.907h1.271
		c0.579,0,1.059-0.182,1.434-0.545c0.375-0.361,0.562-0.816,0.562-1.36c0-0.654-0.188-1.15-0.562-1.489
		c-0.375-0.34-0.854-0.508-1.434-0.508c-0.618,0-1.104,0.168-1.463,0.508c-0.355,0.339-0.535,0.835-0.535,1.489v3.721
		c0,0.665,0.18,1.181,0.535,1.543c0.358,0.363,0.845,0.545,1.463,0.545c0.677,0,1.228-0.266,1.651-0.8l0.581,0.381
		c-0.241,0.353-0.563,0.631-0.962,0.837c-0.399,0.204-0.822,0.307-1.271,0.307c-0.389,0-0.748-0.066-1.08-0.199
		c-0.334-0.132-0.621-0.319-0.862-0.562c-0.242-0.243-0.434-0.538-0.572-0.889c-0.139-0.353-0.209-0.738-0.209-1.163V90.09
		c0-0.411,0.07-0.789,0.209-1.133c0.139-0.347,0.33-0.644,0.572-0.891c0.241-0.248,0.528-0.442,0.862-0.581
		c0.332-0.14,0.691-0.208,1.08-0.208c0.374,0,0.727,0.068,1.053,0.208c0.326,0.139,0.613,0.333,0.862,0.581
		c0.247,0.247,0.445,0.544,0.59,0.891c0.145,0.344,0.218,0.722,0.218,1.133c0,0.353-0.073,0.682-0.218,0.99s-0.343,0.578-0.59,0.808
		c-0.249,0.23-0.536,0.412-0.862,0.545s-0.679,0.2-1.053,0.2h-1.271V91.907z"/>
	<path clip-path="url(#SVGID_2_)" fill="#393737" d="M130.167,87.369h0.726v0.927c0.461-0.485,0.98-0.8,1.562-0.945
		c0.58-0.146,1.148-0.072,1.706,0.218v0.853c-0.327-0.253-0.682-0.404-1.062-0.452c-0.382-0.049-0.735,0-1.062,0.144
		c-0.327,0.145-0.6,0.383-0.817,0.709c-0.218,0.327-0.327,0.731-0.327,1.217v6.408h-0.726V87.369z"/>
	<path clip-path="url(#SVGID_2_)" fill="none" stroke="#393737" stroke-miterlimit="10" d="M130.167,87.369h0.726v0.927
		c0.461-0.485,0.98-0.8,1.562-0.945c0.58-0.146,1.148-0.072,1.706,0.218v0.853c-0.327-0.253-0.682-0.404-1.062-0.452
		c-0.382-0.049-0.735,0-1.062,0.144c-0.327,0.145-0.6,0.383-0.817,0.709c-0.218,0.327-0.327,0.731-0.327,1.217v6.408h-0.726V87.369z
		"/>
	<path clip-path="url(#SVGID_2_)" fill="#393737" d="M137.266,97.044l-2.378-9.676h0.762l1.996,8.15l2.017-8.15h0.762l-2.941,11.818
		c-0.072,0.313-0.195,0.596-0.372,0.844c-0.175,0.248-0.378,0.463-0.607,0.646c-0.229,0.181-0.485,0.322-0.763,0.425
		c-0.278,0.104-0.563,0.161-0.853,0.172v-0.725c0.436-0.025,0.832-0.173,1.188-0.446c0.356-0.271,0.591-0.624,0.699-1.061
		L137.266,97.044z"/>
	<path clip-path="url(#SVGID_2_)" fill="none" stroke="#393737" stroke-miterlimit="10" d="M137.266,97.044l-2.378-9.676h0.762
		l1.996,8.15l2.017-8.15h0.762l-2.941,11.818c-0.072,0.313-0.195,0.596-0.372,0.844c-0.175,0.248-0.378,0.463-0.607,0.646
		c-0.229,0.181-0.485,0.322-0.763,0.425c-0.278,0.104-0.563,0.161-0.853,0.172v-0.725c0.436-0.025,0.832-0.173,1.188-0.446
		c0.356-0.271,0.591-0.624,0.699-1.061L137.266,97.044z"/>
</g>
</svg>
